<?xml version="1.0" encoding="utf-8"?>
<!-- Generator: Adobe Illustrator 19.0.0, SVG Export Plug-In . SVG Version: 6.00 Build 0)  -->
<svg version="1.1" id="Layer_1" xmlns="http://www.w3.org/2000/svg" xmlns:xlink="http://www.w3.org/1999/xlink" x="0px" y="0px"
	 viewBox="0 0 120 120" style="enable-background:new 0 0 120 120;" xml:space="preserve">
<style type="text/css">
	.st0{fill:#34B780;}
	.st1{fill:#C0E0B8;}
</style>
<g id="XMLID_8_">
	<g id="XMLID_34_">
		<path id="XMLID_36_" class="st0" d="M48.1,107.5h4.3c0.1,4.8,4,8.7,8.8,8.7s8.7-3.9,8.8-8.7h3.6v-4.3H48.1V107.5z"/>
		<path id="XMLID_35_" class="st0" d="M82.6,43.7c-5.7-5.8-13.4-9-21.5-9c-0.1,0-0.1,0-0.2,0c-8.1,0-15.8,3.2-21.6,8.9
			c-5.8,5.8-9.1,13.5-9.1,21.7c0,10.7,5.6,20.6,17.9,26.1v6.7h10.1h5.3h10.4v-6.7C86,85.9,91.5,76,91.5,65.3
			C91.5,57.2,88.4,49.5,82.6,43.7z"/>
	</g>
</g>
<g id="XMLID_5_">
	
		<rect id="XMLID_21_" x="53.1" y="6" transform="matrix(-4.967668e-004 -1 1 -4.967668e-004 50.0169 69.3671)" class="st1" width="13.1" height="7.3"/>
	
		<rect id="XMLID_23_" x="94.9" y="20.1" transform="matrix(-0.6698 -0.7425 0.7425 -0.6698 144.8242 117.7286)" class="st1" width="7.3" height="13.1"/>
	
		<rect id="XMLID_27_" x="14.2" y="23.9" transform="matrix(-0.7425 -0.6698 0.6698 -0.7425 17.7425 61.9328)" class="st1" width="13.1" height="7.3"/>
	
		<rect id="XMLID_28_" x="107" y="61.4" transform="matrix(0.9999 -1.186445e-002 1.186445e-002 0.9999 -0.7639 1.3519)" class="st1" width="13.1" height="7.3"/>
	
		<rect id="XMLID_29_" x="2.9" y="58.6" transform="matrix(-1.186608e-002 -0.9999 0.9999 -1.186608e-002 -58.4779 72.332)" class="st1" width="7.3" height="13"/>
</g>
</svg>
