<?xml version="1.0" encoding="utf-8"?>
<!-- Generator: Adobe Illustrator 19.0.0, SVG Export Plug-In . SVG Version: 6.00 Build 0)  -->
<svg version="1.1" id="Layer_1" xmlns="http://www.w3.org/2000/svg" xmlns:xlink="http://www.w3.org/1999/xlink" x="0px" y="0px"
	 viewBox="0 0 120 120" style="enable-background:new 0 0 120 120;" xml:space="preserve">
<style type="text/css">
	.st0{fill:#C0E0B8;}
	.st1{fill:#34B780;}
</style>
<g id="XMLID_1_">
	<g id="XMLID_44_">
		<path id="XMLID_47_" class="st0" d="M60.2,0.4c-7.7,0-14,6.5-14,14.2c0,7.7,6.3,14,14,14c7.7,0,14-6.3,14-14
			C74.2,6.9,67.9,0.4,60.2,0.4z"/>
		<path id="XMLID_46_" class="st0" d="M21.6,63.7c-7.7,0-14.2,6.3-14.2,14c0,7.7,6.5,14,14.2,14c7.7,0,14-6.3,14-14
			C35.6,70,29.3,63.7,21.6,63.7z"/>
		<path id="XMLID_45_" class="st0" d="M98.7,63.7c-7.7,0-14,6.3-14,14c0,7.7,6.3,14,14,14c7.7,0,14-6.3,14-14
			C112.7,70,106.4,63.7,98.7,63.7z"/>
	</g>
</g>
<path id="XMLID_12_" class="st1" d="M110.3,95.2c-3.3,2.2-7.3,3.5-11.6,3.5s-8.3-1.3-11.6-3.5c-0.7,0.5-1.2,1.1-1.9,1.6L63.7,79.5
	V56.7h17.5v-7c0-7.3-3.8-13.7-9.4-17.5c-3.3,2.2-7.3,3.5-11.6,3.5c-4.3,0-8.3-1.3-11.6-3.5c-5.7,3.8-9.4,10.2-9.4,17.5v7h17.5v22.8
	L35.1,96.8c-0.6-0.5-1.2-1.1-1.9-1.6c-3.3,2.2-7.3,3.5-11.6,3.5s-8.5-1.3-11.8-3.5C4.1,99,0.4,105.7,0.4,113v7h42.3v-7
	c0-3.9-1.1-7.7-3-10.9l20.5-16.4l20.5,16.4c-1.9,3.1-3,7-3,10.9v7h42.3v-7C119.9,105.7,116,99,110.3,95.2L110.3,95.2z M110.3,95.2"
	/>
</svg>
