<?xml version="1.0" encoding="utf-8"?>
<!-- Generator: Adobe Illustrator 19.0.0, SVG Export Plug-In . SVG Version: 6.00 Build 0)  -->
<svg version="1.1" id="Layer_1" xmlns="http://www.w3.org/2000/svg" xmlns:xlink="http://www.w3.org/1999/xlink" x="0px" y="0px"
	 viewBox="0 0 120 120" style="enable-background:new 0 0 120 120;" xml:space="preserve">
<style type="text/css">
	.st0{fill:#34B780;}
	.st1{fill:#C0E0B8;}
</style>
<g id="XMLID_1_">
	<path id="XMLID_22_" class="st0" d="M112.4,42.6l-2.8-2.8c-1.8-1.8-4.6-1.8-6.4,0L69.8,72.9l-0.2,0.5l-2.3,11.5l11.5-2.3L112.4,49
		C114.2,47.2,114.2,44.2,112.4,42.6z"/>
	<path id="XMLID_25_" class="st1" d="M88.2,80.2v9c0,1.1-0.9,2-2,2h-63c-1.1,0-2-0.9-2-2v-9c0-1.1,0.9-2,2-2h45.4l1-4.8l0.2-0.5
		l4.8-4.8H58.8c-1.1,0-2-0.9-2-2v-9c0-1.1,0.9-2,2-2h27c0.5,0,1,0.2,1.4,0.6l11.6-11.5V14c0-2.2-1.8-4-4-4h-80c-2.2,0-4,1.8-4,4
		v93.3c0,2.2,1.8,4,4,4h80c2.2,0,4-1.8,4-4V67.8l-11,11C88,79.2,88.2,79.6,88.2,80.2z M21.2,33c0-1.1,0.9-2,2-2h63c1.1,0,2,0.9,2,2
		v9c0,1.1-0.9,2-2,2h-63c-1.1,0-2-0.9-2-2V33z M21.2,57.2c0-1.1,0.9-2,2-2h27c1.1,0,2,0.9,2,2v9c0,1.1-0.9,2-2,2h-27
		c-1.1,0-2-0.9-2-2V57.2z"/>
</g>
</svg>
