<?xml version="1.0" encoding="utf-8"?>
<!-- Generator: Adobe Illustrator 19.0.0, SVG Export Plug-In . SVG Version: 6.00 Build 0)  -->
<svg version="1.1" id="Layer_1" xmlns="http://www.w3.org/2000/svg" xmlns:xlink="http://www.w3.org/1999/xlink" x="0px" y="0px"
	 viewBox="0 0 998.4 2383.5" style="enable-background:new 0 0 998.4 2383.5;" xml:space="preserve">
<g id="XMLID_73_">
	<path id="XMLID_74_" d="M990.2,15.9C863.8,89.5,742.5,201.4,639.3,339.7l-1.9,2.6l71,29.5c-43.3,111.3-75,234-94.4,364.6
		c-9.6,68.2-16.1,137.3-19.4,205.5c-42.9,2.6-82.4,20.4-111.7,50.3l-248.8-90.4l9.9-22.1L0,836.3l194.9,157.3l9.9-22.1l233,127.7
		c-0.1,1.7-0.3,3.5-0.5,5.3c-0.3,2.5-0.6,5-0.6,7.3c0,24.3,5.9,49.5,17.7,74.7l-16.5,10.7l-24.8,15.1l-259.3,151.3l-23.7,12.9
		l-11.8-21.6l-23.1-41.4l-49.4,129.9l137.9,26.4l-23.1-41.4l-11.8-21.6l283.2-165.2l4.5-3.3l20.5-12.9l16.4-10.6
		c19.2,24.9,45.4,43.7,75.8,54.6c-10,202.5-21.3,431.6-30.1,654.8l-57.7-4.4l0.3,3c2.1,17.8,4.1,35.6,6.2,53.4
		c14.9,129.6,30.3,263.7,52.2,394.1l2.3,13.5l2.7-13.4c29.2-146.9,66.5-294.1,102.6-436.5l0.7-2.9l-57.7-4.4
		c19.3-194.7,42.1-407.5,69.8-650.5c28.8-5.3,56.3-19,79.8-39.8l3.2,3.2l3.1-2.8l-3.7-5l-2.4-2.4l-1.8,1.6
		c-23.7,21.4-51.7,35.4-80.9,40.5l-1.8,0.3l-0.2,1.9c-27.9,244.8-50.9,459.1-70.3,654.9l-0.3,2.5l56.9,4.3
		c-34.8,137.2-70.7,278.9-99.3,420.5c-20.7-126.1-35.6-255.3-49.9-380.4c-1.9-16.8-3.9-33.6-5.8-50.4l56.8,4.3l0.1-2.6
		c8.9-224.7,20.2-455.5,30.3-659.2l0.1-1.9l-1.8-0.6c-31-10.7-57.5-29.8-76.6-55.3l-1.4-1.9l-20.3,13.1l-20.5,13l-4.4,3.3
		l-287.3,167.6l14.1,25.9l17.9,32.1l-121.5-23.3L96,1325.1l17.9,32l14.2,26l28.2-15.3l259.4-151.3l24.9-15.2l20.2-13.1l-0.9-2
		c-12-25.3-18.1-50.4-18.1-74.6c0-2,0.3-4.4,0.5-6.7c0.3-2.5,0.6-5,0.6-7.3v-1.5L202.5,964.5l-9.5,21.1l-174.7-141l218.5,38.8
		l-9.5,21.1l255.4,92.8l1.5,0.6l1.1-1.2c29.1-30.2,68.8-47.9,111.8-50l2.3-0.1l0.1-2.3c3.2-68.8,9.8-138.5,19.4-207.2
		c19.4-131.1,51.3-254.2,95-365.8l0.9-2.3l-69.5-28.9C745.4,206.5,862.5,97.8,984.7,25c-34.5,61.2-62.8,127.5-84.2,197.4
		c-19.9,64.9-34.3,134.6-42.9,207.1l-68.3-28.8l-1,2.2c-48.7,104.6-86.5,220.7-112.6,345.3c-13.9,70.9-24.2,136.7-31.4,201.2
		l-0.2,2.2l2.1,0.5c74,18.5,125.6,84.2,125.6,159.7c0,26.1-6.3,51.9-18.1,74.5l-0.8,1.5l12.6,13.9l3.6-3.3l-10.2-11.4
		c11.7-22.9,17.9-48.9,17.9-75.3c0-38.8-12.7-75.3-36.8-105.3c-22.8-28.5-54.9-49.3-90.5-58.7c7.1-63.7,17.3-128.7,31.1-198.6
		c25.8-123.3,63.2-238.4,111.2-342l70,29.5l0.4-3.3c18-154.7,62.2-294,131.5-414l4.7-8.1L990.2,15.9z"/>
	<path id="XMLID_77_" d="M516.7,1111.7c0,49.1,39.9,89,89,89s89-39.9,89-89c0-49.1-39.9-89-89-89S516.7,1062.7,516.7,1111.7z
		 M689.6,1111.7c0,46.3-37.7,84-84,84s-84-37.7-84-84s37.7-84,84-84S689.6,1065.4,689.6,1111.7z"/>
</g>
</svg>
