<?xml version="1.0" encoding="utf-8"?>
<!-- Generator: Adobe Illustrator 19.0.0, SVG Export Plug-In . SVG Version: 6.00 Build 0)  -->
<svg version="1.1" id="Layer_1" xmlns="http://www.w3.org/2000/svg" xmlns:xlink="http://www.w3.org/1999/xlink" x="0px" y="0px"
	 viewBox="0 0 120 120" style="enable-background:new 0 0 120 120;" xml:space="preserve">
<style type="text/css">
	.st0{fill:#34B780;}
	.st1{fill:#FFFFFF;}
	.st2{fill:#C0E0B8;}
</style>
<g id="XMLID_1_">
	<circle id="XMLID_10_" class="st0" cx="31.2" cy="31.6" r="21.2"/>
	<circle id="XMLID_18_" class="st0" cx="88.8" cy="88.4" r="21.2"/>
	<g id="XMLID_31_">
		<g id="XMLID_32_">
			<path id="XMLID_15_" class="st1" d="M45.3,20.9c-0.5-0.5-1.4-0.5-1.9,0L29,37.3L22.7,31c-0.5-0.5-1.4-0.5-1.9,0
				c-0.5,0.5-0.5,1.4,0,1.9l7.3,7.3c0.5,0.5,1.4,0.5,1.9,0l15.3-17.3C45.9,22.3,45.9,21.5,45.3,20.9z"/>
		</g>
	</g>
	<g id="XMLID_20_">
		<g id="XMLID_30_">
			<path id="XMLID_34_" class="st1" d="M103.1,78.8c-0.5-0.5-1.4-0.5-1.9,0L86.8,95.2l-6.3-6.3c-0.5-0.5-1.4-0.5-1.9,0
				c-0.5,0.5-0.5,1.4,0,1.9l7.3,7.3c0.5,0.5,1.4,0.5,1.9,0l15.3-17.3C103.6,80.2,103.6,79.3,103.1,78.8z"/>
		</g>
	</g>
	<path id="XMLID_55_" class="st2" d="M31.2,67.2C19.5,67.2,10,76.7,10,88.4s9.5,21.2,21.2,21.2c11.7,0,21.2-9.5,21.2-21.2
		S42.9,67.2,31.2,67.2z M45.3,80.7L30,98.1c-0.5,0.5-1.4,0.5-1.9,0l-7.3-7.3c-0.3-0.3-0.4-0.8-0.3-1.3c0-0.4,0.1-0.8,0.4-1.1
		c0.5-0.5,1.4-0.5,1.9,0l6.3,6.3l14.4-16.4c0.5-0.5,1.4-0.5,1.9,0c0.3,0.3,0.4,0.8,0.3,1.3C45.7,80,45.6,80.4,45.3,80.7z"/>
	<path id="XMLID_66_" class="st2" d="M88.8,10.3c-11.7,0-21.2,9.5-21.2,21.2s9.5,21.2,21.2,21.2S110,43.3,110,31.6
		S100.5,10.3,88.8,10.3z M101.1,22.2L85.8,39.6c-0.5,0.5-1.4,0.5-1.9,0l-7.3-7.3c-0.5-0.5-0.5-1.4,0-1.9c0.5-0.5,1.4-0.5,1.9,0
		l6.3,6.3l14.4-16.4c0.5-0.5,1.4-0.5,1.9,0c0.3,0.3,0.4,0.6,0.4,1C101.5,21.6,101.4,22,101.1,22.2z"/>
</g>
</svg>
