<?xml version="1.0" encoding="utf-8" ?>
<!-- Generator: Adobe Illustrator 19.0.0, SVG Export Plug-In . SVG Version: 6.00 Build 0)  -->
<!DOCTYPE svg PUBLIC "-//W3C//DTD SVG 1.1//EN" "http://www.w3.org/Graphics/SVG/1.1/DTD/svg11.dtd">
<svg id="letters" width="100%" height="100%" viewBox="0 0 2500 2500" version="1.1" xmlns="http://www.w3.org/2000/svg" xmlns:xlink="http://www.w3.org/1999/xlink" xml:space="preserve" style="fill-rule:evenodd;clip-rule:evenodd;stroke-linejoin:round;stroke-miterlimit:1.41421;">
	<path id="path1" style="fill:none;stroke-width:0.63px;stroke:black;"  class="st0" d="M875.8,1075.1C860.7,926,727.7,817.9,578.6,833c-149.1,15.1-257.2,148.1-242.1,297.2
	c15.1,149.1,148.1,257.2,297.2,242.1C782.8,1356.1,892,1223.2,875.8,1075.1z M606.7,1188.6c-47.6,0-86.5-38.9-86.5-86.5
	c0-47.6,38.9-86.5,86.5-86.5c47.6,0,86.5,38.9,86.5,86.5C693.1,1149.7,654.2,1188.6,606.7,1188.6z" />
	<path id="path2" style="fill:none;stroke-width:0.63px;stroke:black;" d="M517,887.1c9.7-5.4,20.5-1.1,25.9,8.6c5.4,9.7,1.1,21.6-7.6,25.9c-9.7,5.4-20.5,1.1-25.9-8.6
	C505.1,903.3,508.3,892.5,517,887.1z" />
	<path id="path21" style="fill:none;stroke-width:0.63px;stroke:black;" d="M483.5,822.2c9.7-4.3,20.5-1.1,25.9,8.6c5.4,9.7,1.1,21.6-7.6,25.9c-9.7,5.4-20.5,1.1-25.9-8.6
	C470.5,838.4,473.8,826.5,483.5,822.2z" />
	<path id="path3" style="fill:none;stroke-width:0.63px;stroke:black;" d="M450,756.3c9.7-4.3,20.5-1.1,25.9,8.6c4.3,9.7,1.1,21.6-8.6,25.9c-9.7,4.3-20.5,1.1-25.9-8.6
	C437,772.5,440.3,760.6,450,756.3z" />
	<path id="path4" style="fill:none;stroke-width:0.63px;stroke:black;" d="M416.5,690.4c9.7-4.3,20.5-1.1,25.9,8.6c4.3,9.7,1.1,21.6-8.6,25.9c-9.7,4.3-20.5,1.1-25.9-8.6
	C403.5,706.6,406.8,694.7,416.5,690.4z" />
	<path id="path22" style="fill:none;stroke-width:0.63px;stroke:black;" d="M384.1,624.5c9.7-4.3,20.5,0,25.9,8.6c4.3,9.7,1.1,21.6-8.6,25.9c-9.7,4.3-20.5,1.1-25.9-8.6
	C371.1,639.6,374.3,628.8,384.1,624.5z"/>
	<path id="path5" style="fill:none;stroke-width:0.63px;stroke:black;" d="M352.7,557.5c9.7-4.3,20.5,0,25.9,9.7c4.3,9.7,0,21.6-8.6,25.9c-9.7,4.3-20.5,0-25.9-9.7
	C338.7,573.7,343,561.8,352.7,557.5z" />
	<path id="path6" style="fill:none;stroke-width:0.63px;stroke:black;" d="M274.9,557.5c-3.2-7.6-1.1-16.2,6.5-19.5c7.6-3.2,16.2,0,19.5,7.6c3.2,7.6,1.1,16.2-6.5,19.5
	C287.9,568.3,279.2,565,274.9,557.5z" />
	<path id="path7" style="fill:none;stroke-width:0.63px;stroke:black;" d="M309.5,542.3c-3.2-7.6-1.1-16.2,6.5-19.5c7.6-3.2,16.2,0,19.5,6.5c3.2,7.6,1.1,16.2-6.5,19.5
	C321.4,553.1,312.7,549.9,309.5,542.3z" />
	<path id="path8" style="fill:none;stroke-width:0.63px;stroke:black;" d="M343,526.1c-3.2-7.6,0-16.2,6.5-19.5c7.6-3.2,16.2,0,19.5,6.5c3.2,7.6,0,16.2-6.5,19.5
	C354.9,536.9,346.2,533.7,343,526.1z" />
	<path id="path9" style="fill:none;stroke-width:0.63px;stroke:black;" d="M377.6,511c-3.2-7.6,0-16.2,6.5-19.5c7.6-3.2,16.2,0,19.5,6.5c3.2,7.6,0,16.2-6.5,19.5
	C389.5,521.8,380.8,518.5,377.6,511z" />
	<path id="path10" style="fill:none;stroke-width:0.63px;stroke:black;" d="M277.1,518.5c-3.2-7.6-1.1-16.2,6.5-19.5c7.6-3.2,16.2,0,19.5,7.6c3.2,7.6,1.1,16.2-6.5,19.5
	C290,529.4,281.4,526.1,277.1,518.5z" />
	<path id="path11" style="fill:none;stroke-width:0.63px;stroke:black;" d="M311.7,503.4c-3.2-7.6,0-16.2,6.5-19.5c7.6-3.2,16.2,0,19.5,7.6s0,16.2-6.5,19.5
	C323.5,514.2,314.9,511,311.7,503.4z" />
	<path id="path12" style="fill:none;stroke-width:0.63px;stroke:black;" d="M345.2,488.3c-3.2-7.6,0-16.2,6.5-19.5c7.6-3.2,16.2,0,19.5,6.5c3.2,7.6,0,16.2-6.5,19.5
	C358.1,499.1,349.5,495.9,345.2,488.3z" />
	<path id="path13" style="fill:none;stroke-width:0.63px;stroke:black;" d="M279.2,478.6c-3.2-7.6,0-16.2,7.6-19.5c7.6-3.2,16.2,0,19.5,7.6c3.2,7.6,0,16.2-7.6,19.5
	C291.1,489.4,282.5,486.1,279.2,478.6z" />
	<path id="path14" style="fill:none;stroke-width:0.63px;stroke:black;" d="M313.8,463.4c-3.2-7.6,0-16.2,7.6-19.5c7.6-3.2,16.2,0,19.5,7.6c3.2,7.6,0,16.2-7.6,19.5
	C325.7,474.2,317.1,471,313.8,463.4z" />
	<path id="path15" style="fill:none;stroke-width:0.63px;stroke:black;" d="M281.4,439.7c-3.2-7.6,0-16.2,7.6-19.5c7.6-3.2,16.2,0,19.5,7.6c3.2,7.6,0,16.2-7.6,19.5
	C294.4,450.5,285.7,447.2,281.4,439.7z" />
	<rect id="rect1" style="fill:none;stroke-width:0.63px;stroke:black;" x="737.4" y="954.2" transform="matrix(-0.6839 0.7295 -0.7295 -0.6839 1972.1938 1083.2507)" width="28.1" height="29.2" />
	<rect id="rect2" style="fill:none;stroke-width:0.63px;stroke:black;" x="773.4" y="916.9" transform="matrix(-0.6839 0.7295 -0.7295 -0.6839 2005.5111 994.0616)" width="28.1" height="29.2" />
	<rect id="rect3" style="fill:none;stroke-width:0.63px;stroke:black;" x="807.8" y="879.5" transform="matrix(-0.6839 0.7295 -0.7295 -0.6839 2036.2931 906.0716)" width="28.1" height="29.2" />
	<rect id="rect4" style="fill:none;stroke-width:0.63px;stroke:black;" x="843" y="841.4" transform="matrix(-0.6839 0.7295 -0.7295 -0.6839 2067.7476 816.2224)" width="28.1" height="29.2" />
	<rect id="rect5" style="fill:none;stroke-width:0.63px;stroke:black;" x="878.3" y="804.8" transform="matrix(-0.6839 0.7295 -0.7295 -0.6839 2100.3923 728.8926)" width="28.1" height="29.2" />
	<path id="path16" style="fill:none;stroke-width:0.63px;stroke:black;" d="M817.4,714.2l46.5,43.2l91.9,86.5l46.5,43.2l10.8-195.6L817.4,714.2z M986,846l-31.3-30.3l-63.8-59.4
	L859.6,726l134-16.2L986,846z" />
	<rect id="rect6" style="fill:none;stroke-width:0.63px;stroke:black;" x="727.1" y="1214.2" transform="matrix(-0.7318 0.6815 -0.6815 -0.7318 2143.8972 1598.7656)" width="60.5" height="14" />
	<rect id="rect7" style="fill:none;stroke-width:0.63px;stroke:black;" x="738.8" y="1230.5" transform="matrix(-0.7311 0.6823 -0.6823 -0.7311 2173.1584 1611.0186)" width="60.5" height="6.5" />
	<rect id="rect8" style="fill:none;stroke-width:0.63px;stroke:black;" x="765.3" y="1254" transform="matrix(-0.7298 0.6837 -0.6837 -0.7298 2238.2395 1637.3613)" width="60.5" height="14" />
	<rect id="rect9" style="fill:none;stroke-width:0.63px;stroke:black;" x="776.9" y="1270.3" transform="matrix(-0.729 0.6845 -0.6845 -0.729 2267.3594 1649.5237)" width="60.5" height="6.5" />
	<rect id="rect10" style="fill:none;stroke-width:0.63px;stroke:black;" x="803.4" y="1295.5" transform="matrix(-0.7276 0.686 -0.686 -0.7276 2333.6829 1678.3505)" width="60.5" height="14" />
	<polygon id="poly1" style="fill:none;stroke-width:0.63px;stroke:black;" points="866.1,1291.8 821.7,1332.9 826.1,1338.3 870.4,1297.2 " />
	<rect id="rect11" style="fill:none;stroke-width:0.63px;stroke:black;" x="842.5" y="1336.1" transform="matrix(-0.725 0.6888 -0.6888 -0.725 2430.6409 1715.7485)" width="60.5" height="14" />
	<rect id="rect12" style="fill:none;stroke-width:0.63px;stroke:black;" x="854.2" y="1352.5" transform="matrix(-0.7239 0.6899 -0.6899 -0.7239 2460.094 1726.9794)" width="60.5" height="6.5" />
	<rect id="rect13" style="fill:none;stroke-width:0.63px;stroke:black;" x="880.9" y="1376.1" transform="matrix(-0.7218 0.6921 -0.6921 -0.7218 2526.1707 1750.8884)" width="60.5" height="14" />
	<rect id="rect14" style="fill:none;stroke-width:0.63px;stroke:black;" x="892.7" y="1392.5" transform="matrix(-0.7203 0.6936 -0.6936 -0.7203 2555.9084 1760.9193)" width="60.5" height="6.5" />
	<polygon id="poly2" style="fill:none;stroke-width:0.63px;stroke:black;" points="923.3,1439.9 933.1,1449.6 976.3,1407.5 966.6,1397.7 " />
	<rect id="rect15" style="fill:none;stroke-width:0.63px;stroke:black;" x="931.5" y="1432.6" transform="matrix(-0.7154 0.6987 -0.6987 -0.7154 2653.0972 1790.9725)" width="60.5" height="6.5" />
	<path id="path17" style="fill:none;stroke-width:0.63px;stroke:black;" d="M1035.7,1391.2l-30.3,29.2l-60.5,59.4l-30.3,29.2c45.4,5.4,89.7,10.8,134,15.1
	C1044.4,1479.9,1040.1,1435.6,1035.7,1391.2z" />
	<path id="path18" style="fill:none;stroke-width:0.63px;stroke:black;" class="st1" d="M606.7,1037.3c-35.7,0-65.9,29.2-65.9,65.9c0,35.7,29.2,65.9,65.9,65.9
	c35.7,0,65.9-29.2,65.9-65.9C672.6,1066.5,642.4,1037.3,606.7,1037.3z" />
	<g> 
		<path id="path19" style="fill:none;stroke-width:0.63px;stroke:black;" d="M990.2,6.3C863.8,79.9,742.5,191.8,639.3,330.1l-1.9,2.6l71,29.5c-43.3,111.3-75,234-94.4,364.6
		c-9.6,68.2-16.1,137.3-19.4,205.5c-42.9,2.6-82.4,20.4-111.7,50.3l-248.8-90.4L244,870L0,826.7L194.9,984l9.9-22.1l233,127.7
		c-0.1,1.7-0.3,3.5-0.5,5.3c-0.3,2.5-0.6,5-0.6,7.3c0,24.3,5.9,49.5,17.7,74.7l-16.5,10.7l-24.8,15.1l-259.3,151.3l-23.7,12.9
		l-11.8-21.6l-23.1-41.4l-49.4,129.9l137.9,26.4l-23.1-41.4l-11.8-21.6l283.2-165.2l4.5-3.3l20.5-12.9l16.4-10.6
		c19.2,24.9,45.4,43.7,75.8,54.6c-10,202.5-21.3,431.6-30.1,654.8l-57.7-4.4l0.3,3c2.1,17.8,4.1,35.6,6.2,53.4
		c14.9,129.6,30.3,263.7,52.2,394.1l2.3,13.5l2.7-13.4c29.2-146.9,66.5-294.1,102.6-436.5l0.7-2.9l-57.7-4.4
		c19.3-194.7,42.1-407.5,69.8-650.5c28.8-5.3,56.3-19,79.8-39.8l3.2,3.2l3.1-2.8l-3.7-5l-2.4-2.4l-1.8,1.6
		c-23.7,21.4-51.7,35.4-80.9,40.5l-1.8,0.3l-0.2,1.9c-27.9,244.8-50.9,459.1-70.3,654.9l-0.3,2.5l56.9,4.3
		c-34.8,137.2-70.7,278.9-99.3,420.5c-20.7-126.1-35.6-255.3-49.9-380.4c-1.9-16.8-3.9-33.6-5.8-50.4l56.8,4.3l0.1-2.6
		c8.9-224.7,20.2-455.5,30.3-659.2l0.1-1.9l-1.8-0.6c-31-10.7-57.5-29.8-76.6-55.3l-1.4-1.9l-20.3,13.1l-20.5,13l-4.4,3.3
		l-287.3,167.6l14.1,25.9l17.9,32.1l-121.5-23.3L96,1315.5l17.9,32l14.2,26l28.2-15.3l259.4-151.3l24.9-15.2l20.2-13.1l-0.9-2
		c-12-25.3-18.1-50.4-18.1-74.6c0-2,0.3-4.4,0.5-6.7c0.3-2.5,0.6-5,0.6-7.3v-1.5L202.5,954.9L193,976L18.3,835l218.5,38.8l-9.5,21.1
		l255.4,92.8l1.5,0.6l1.1-1.2c29.1-30.2,68.8-47.9,111.8-50l2.3-0.1l0.1-2.3c3.2-68.8,9.8-138.5,19.4-207.2
		c19.4-131.1,51.3-254.2,95-365.8l0.9-2.3l-69.5-28.9C745.4,196.9,862.5,88.2,984.7,15.4c-34.5,61.2-62.8,127.5-84.2,197.4
		c-19.9,64.9-34.3,134.6-42.9,207.1L789.2,391l-1,2.2c-48.7,104.6-86.5,220.7-112.6,345.3c-13.9,70.9-24.2,136.7-31.4,201.2
		l-0.2,2.2l2.1,0.5c74,18.5,125.6,84.2,125.6,159.7c0,26.1-6.3,51.9-18.1,74.5l-0.8,1.5l12.6,13.9l3.6-3.3l-10.2-11.4
		c11.7-22.9,17.9-48.9,17.9-75.3c0-38.8-12.7-75.3-36.8-105.3c-22.8-28.5-54.9-49.3-90.5-58.7c7.1-63.7,17.3-128.7,31.1-198.6
		c25.8-123.3,63.2-238.4,111.2-342l70,29.5l0.4-3.3c18-154.7,62.2-294,131.5-414l4.7-8.1L990.2,6.3z" />
		<path id="path20" style="fill:none;stroke-width:0.63px;stroke:black;" d="M516.7,1102.1c0,49.1,39.9,89,89,89s89-39.9,89-89c0-49.1-39.9-89-89-89S516.7,1053.1,516.7,1102.1z
		 M689.6,1102.1c0,46.3-37.7,84-84,84s-84-37.7-84-84s37.7-84,84-84S689.6,1055.8,689.6,1102.1z" />
	</g>
</svg>