<?xml version="1.0" standalone="no"?>
<!DOCTYPE svg PUBLIC "-//W3C//DTD SVG 20010904//EN"
 "http://www.w3.org/TR/2001/REC-SVG-20010904/DTD/svg10.dtd">
<svg version="1.0" xmlns="http://www.w3.org/2000/svg"
 width="250.000000pt" height="250.000000pt" viewBox="0 0 250.000000 250.000000"
 preserveAspectRatio="xMidYMid meet">
<metadata>
Created by potrace 1.11, written by Peter Selinger 2001-2013
</metadata>
<g transform="translate(0.000000,250.000000) scale(0.100000,-0.100000)"
fill="#000000" stroke="none">
<path d="M645 1988 c-33 -22 -89 -69 -125 -105 -64 -65 -65 -66 -40 -75 33
-12 32 -10 16 -49 -17 -42 -52 -178 -60 -234 -3 -22 -5 -41 -6 -41 -1 -7 -70
-8 -70 -1 0 5 -6 7 -12 5 -7 -3 -13 -9 -13 -14 0 -6 -16 -24 -35 -41 l-34 -31
-46 17 c-25 9 -49 21 -55 28 -5 6 -32 14 -60 17 -27 4 -63 9 -80 12 -36 8 -36
8 42 -49 33 -25 64 -43 67 -40 3 4 28 -4 56 -17 45 -21 49 -26 45 -51 -3 -16
1 -46 8 -68 l14 -40 -84 -44 c-82 -44 -83 -45 -97 -25 -14 20 -15 19 -30 -17
-21 -49 -20 -55 7 -56 12 0 32 -2 45 -5 20 -4 22 -2 12 17 -7 11 -10 22 -8 23
2 1 40 21 85 45 l83 42 37 -29 c21 -17 48 -33 60 -36 20 -6 21 -11 16 -84 -6
-104 -11 -187 -12 -246 -1 -44 -3 -48 -22 -43 -19 5 -20 2 -15 -51 8 -79 26
-203 33 -226 3 -11 19 36 39 115 40 157 39 155 16 161 -17 5 -17 11 -6 104 7
54 16 124 19 154 3 30 8 64 10 75 2 11 4 23 4 26 1 4 16 9 33 13 82 16 148 95
148 176 0 41 -22 98 -44 113 -8 5 -7 10 4 16 8 6 11 13 7 18 -5 4 -12 1 -17
-6 -6 -11 -13 -10 -35 8 -15 11 -35 21 -45 21 -9 0 -19 3 -22 6 -9 8 39 181
67 241 20 44 27 52 49 50 14 -1 25 1 26 5 6 40 47 163 66 202 14 27 23 50 22
52 -2 1 -30 -16 -63 -38z m-170 -653 c14 -13 25 -29 25 -35 0 -19 -48 -60 -70
-60 -25 0 -60 34 -60 58 0 22 10 36 35 50 30 17 43 15 70 -13z"/>
<path d="M409 1336 c-34 -25 -28 -65 12 -79 22 -7 59 19 59 42 0 32 -46 56
-71 37z"/>
<path d="M922 1874 c-12 -11 -26 -33 -31 -50 -11 -40 9 -76 73 -129 46 -38 56
-61 34 -83 -17 -17 -48 4 -48 32 0 19 -6 25 -29 28 -24 4 -30 0 -34 -19 -6
-34 23 -85 56 -96 45 -15 95 0 116 33 29 48 17 83 -50 144 -57 53 -74 89 -46
99 21 8 47 -13 47 -38 0 -21 5 -25 30 -25 27 0 30 3 30 33 -1 49 -29 78 -81
84 -34 4 -50 1 -67 -13z"/>
<path d="M1107 1823 c-4 -3 -7 -65 -7 -137 l0 -131 25 -1 c25 -2 25 -1 25 81
0 64 3 84 15 89 17 6 17 6 20 -84 3 -92 3 -90 28 -86 21 3 22 8 23 90 1 98
-11 125 -58 128 -21 2 -28 8 -28 24 0 12 -7 25 -16 28 -19 7 -19 7 -27 -1z"/>
<path d="M1557 1822 c-16 -3 -17 -16 -15 -135 3 -129 4 -132 26 -133 25 -1 23
-12 25 153 2 114 -1 123 -36 115z"/>
<path d="M2041 1812 c-4 -10 -6 -22 -4 -28 2 -7 -8 -11 -23 -11 -45 0 -64 -34
-64 -112 1 -77 14 -100 61 -107 26 -4 39 0 57 16 20 19 22 30 22 134 0 106 -1
114 -20 119 -13 3 -23 -1 -29 -11z m-4 -151 c2 -54 0 -62 -15 -59 -13 3 -17
15 -18 58 0 62 3 73 19 67 7 -2 13 -29 14 -66z"/>
<path d="M1443 1790 c4 -15 0 -20 -15 -20 -14 0 -19 -6 -16 -22 2 -13 10 -23
18 -23 12 0 15 -15 14 -82 -1 -46 2 -84 7 -84 44 -6 44 -7 44 74 0 58 4 82 15
90 23 18 23 44 0 50 -13 3 -18 10 -14 21 5 13 -1 16 -26 16 -27 0 -32 -3 -27
-20z"/>
<path d="M1303 1765 c-35 -15 -42 -36 -39 -119 3 -71 30 -102 80 -92 53 11 59
27 56 155 -1 50 -47 77 -97 56z m45 -63 c2 -14 -2 -22 -11 -22 -20 0 -26 9
-20 31 7 25 27 19 31 -9z m20 -69 c-10 -2 -18 -11 -18 -19 0 -8 -7 -14 -15
-14 -8 0 -15 9 -15 20 0 16 6 20 33 19 17 -1 24 -3 15 -6z"/>
<path d="M1672 1772 c-23 -4 -57 -55 -47 -72 11 -17 55 -7 55 12 0 22 18 24
27 3 7 -20 4 -23 -32 -29 -50 -9 -67 -49 -44 -100 14 -29 54 -41 91 -27 32 12
37 28 36 113 -1 82 -25 110 -86 100z m34 -143 c10 -17 -13 -36 -27 -22 -12 12
-4 33 11 33 5 0 12 -5 16 -11z"/>
<path d="M1830 1772 c-31 -11 -39 -37 -40 -129 0 -68 3 -93 13 -93 29 1 36 18
39 95 4 105 22 100 28 -7 5 -77 7 -83 28 -84 12 -1 22 1 23 5 9 57 -1 201 -15
201 0 0 -15 4 -31 8 -17 5 -37 7 -45 4z"/>
<path d="M195 1751 c-3 -5 3 -12 12 -14 17 -4 17 -5 1 -6 -10 0 -18 -5 -18
-11 0 -13 13 -13 27 1 7 7 13 7 17 1 3 -5 -6 -13 -20 -16 -15 -4 -24 -9 -22
-12 3 -2 18 0 33 6 19 7 31 7 40 0 9 -8 15 -8 20 0 3 5 -1 10 -9 10 -9 0 -16
5 -16 11 0 5 -4 7 -10 4 -5 -3 -10 -2 -10 2 0 13 -39 34 -45 24z"/>
<path d="M240 1690 c0 -5 -6 -7 -12 -5 -15 5 -45 -11 -37 -20 8 -7 69 15 69
26 0 5 -4 9 -10 9 -5 0 -10 -4 -10 -10z"/>
<path d="M246 1663 c-11 -11 -6 -23 9 -23 8 0 15 4 15 9 0 13 -16 22 -24 14z"/>
<path d="M262 1609 c2 -6 8 -10 13 -10 5 0 11 4 13 10 2 6 -4 11 -13 11 -9 0
-15 -5 -13 -11z"/>
<path d="M285 1570 c-8 -13 15 -24 27 -12 6 6 4 11 -6 15 -8 3 -18 2 -21 -3z"/>
<path d="M709 1576 c-2 -2 -28 -6 -58 -9 -29 -3 -55 -8 -57 -10 -6 -6 111
-101 122 -99 12 2 17 109 6 116 -5 3 -11 4 -13 2z m1 -56 c0 -22 -3 -40 -7
-40 -9 1 -73 57 -73 64 0 5 24 11 58 14 19 2 22 -3 22 -38z"/>
<path d="M310 1520 c0 -5 7 -10 15 -10 8 0 15 5 15 10 0 6 -7 10 -15 10 -8 0
-15 -4 -15 -10z"/>
<path d="M630 1490 c0 -5 5 -10 10 -10 6 0 10 5 10 10 0 6 -4 10 -10 10 -5 0
-10 -4 -10 -10z"/>
<path d="M606 1472 c-3 -6 -1 -14 5 -17 15 -10 25 3 12 16 -7 7 -13 7 -17 1z"/>
<path d="M870 1379 c0 -27 3 -30 28 -27 l27 3 5 -140 5 -139 28 -1 27 -2 0
139 c0 84 4 138 10 139 6 1 18 2 28 3 16 1 33 33 25 49 -2 4 -44 7 -94 7 l-89
0 0 -31z"/>
<path d="M1477 1343 c-12 -12 -7 -31 9 -37 21 -8 45 11 37 30 -5 14 -34 19
-46 7z"/>
<path d="M1083 1288 c-38 -10 -50 -41 -46 -122 3 -66 13 -83 60 -92 25 -5 37
-1 55 17 20 21 24 33 23 89 -2 94 -28 126 -92 108z m38 -53 c1 -8 1 -26 1 -40
0 -63 -3 -75 -17 -75 -12 0 -15 13 -15 58 0 32 3 62 7 65 11 12 23 8 24 -8z"/>
<path d="M1589 1293 c-24 -6 -43 -47 -35 -78 4 -15 21 -35 41 -47 19 -11 35
-26 35 -34 0 -20 -27 -17 -32 4 -3 10 -15 18 -26 19 -29 2 -30 -39 -2 -67 40
-40 113 -11 113 45 0 28 -11 41 -64 77 -20 13 -22 19 -11 29 10 11 14 10 18
-9 9 -32 54 -31 54 1 0 38 -48 69 -91 60z"/>
<path d="M1753 1289 c-35 -13 -44 -43 -41 -132 3 -74 5 -82 23 -82 29 -1 31 6
29 89 -1 56 2 76 12 80 11 4 14 -12 14 -84 l0 -89 27 3 c27 3 27 3 27 86 1 57
5 85 14 87 9 4 12 -18 12 -84 0 -82 2 -89 20 -90 11 -1 23 6 28 15 11 26 6
170 -7 186 -14 16 -65 26 -82 15 -7 -4 -22 -4 -33 1 -12 4 -31 4 -43 -1z"/>
<path d="M1201 1218 c0 -105 6 -124 38 -138 34 -14 78 -4 91 20 6 10 10 57 10
104 0 85 0 86 -25 86 -24 0 -25 -3 -26 -57 -2 -99 -3 -108 -19 -108 -12 0 -15
15 -16 70 -2 97 -1 95 -28 95 -24 0 -25 -2 -25 -72z"/>
<path d="M1387 1278 c-12 -10 -16 -31 -17 -93 -2 -118 -3 -113 25 -111 25 1
25 2 25 84 0 72 3 85 18 89 10 2 18 13 19 24 1 14 -5 19 -26 19 -15 0 -35 -6
-44 -12z"/>
<path d="M1470 1181 l0 -108 25 0 c16 0 25 5 26 16 1 22 1 151 0 179 -1 17 -7
22 -26 22 l-25 0 0 -109z"/>
<path d="M591 1167 c-6 -8 -8 -16 -5 -20 10 -9 34 4 34 19 0 18 -14 18 -29 1z"/>
<path d="M621 1141 c-7 -5 -10 -14 -7 -20 5 -8 11 -7 22 3 24 24 14 35 -15 17z"/>
<path d="M645 1109 c-4 -6 -5 -12 -2 -15 7 -7 37 7 37 17 0 13 -27 11 -35 -2z"/>
<path d="M680 1085 c-18 -21 -5 -31 15 -12 8 9 11 18 6 21 -5 3 -14 -1 -21 -9z"/>
<path d="M698 1061 l-43 -40 35 -2 c19 0 43 -2 52 -4 15 -3 16 3 11 38 -3 23
-7 44 -8 45 -2 2 -23 -14 -47 -37z"/>
<path d="M953 942 c-13 -2 -32 -15 -43 -29 -18 -23 -20 -40 -20 -164 l0 -139
29 0 c28 0 30 2 33 48 3 45 4 47 33 47 28 0 29 -2 30 -45 1 -43 2 -45 32 -48
l30 -3 1 118 c1 65 -1 133 -4 151 -7 49 -57 75 -121 64z m54 -64 c4 -7 8 -36
8 -65 1 -43 -2 -53 -18 -57 -36 -9 -47 4 -47 54 0 27 3 55 6 64 7 19 40 21 51
4z"/>
<path d="M1767 884 c-4 -4 -7 -16 -7 -26 0 -14 6 -19 23 -16 14 2 22 10 22 23
0 20 -25 32 -38 19z"/>
<path d="M2120 875 c-9 -11 -10 -19 -3 -26 17 -17 48 -6 48 16 0 25 -28 31
-45 10z"/>
<path d="M2020 849 c0 -11 -6 -19 -14 -19 -16 0 -29 -27 -20 -41 3 -5 12 -9
20 -9 11 0 14 -15 13 -72 -1 -100 -2 -98 26 -98 25 0 25 1 25 85 0 69 3 85 15
85 9 0 15 9 15 25 0 14 -5 24 -12 23 -7 -2 -14 7 -16 18 -4 29 -52 31 -52 3z"/>
<path d="M1130 810 c-36 -36 -25 -64 49 -123 16 -13 20 -22 13 -29 -13 -13
-32 -2 -32 18 0 8 -10 14 -25 14 -27 0 -32 -18 -14 -51 33 -63 142 -23 125 45
-3 13 -24 35 -46 50 -41 27 -51 46 -25 46 8 0 15 -6 15 -14 0 -14 27 -25 46
-19 17 6 4 52 -19 68 -30 21 -63 19 -87 -5z"/>
<path d="M1293 815 c-40 -28 -37 -55 14 -102 36 -34 44 -46 34 -56 -9 -9 -13
-7 -17 11 -9 33 -54 31 -54 -2 0 -14 7 -32 16 -40 16 -16 71 -21 90 -8 20 13
32 47 24 67 -9 22 -55 65 -70 65 -6 0 -10 7 -10 15 0 8 7 15 15 15 8 0 15 -7
15 -15 0 -8 3 -15 8 -16 4 0 15 -2 25 -4 24 -5 23 39 -3 65 -24 24 -57 26 -87
5z"/>
<path d="M1450 810 c-16 -16 -20 -33 -20 -93 0 -75 9 -95 51 -109 20 -8 79 17
80 34 1 7 3 44 4 81 2 62 0 70 -23 87 -32 26 -67 25 -92 0z m65 -89 c0 -58 -7
-77 -24 -67 -6 4 -11 34 -11 67 0 52 2 60 17 57 14 -2 18 -14 18 -57z"/>
<path d="M1619 811 c-20 -16 -24 -29 -25 -87 -2 -89 12 -114 65 -114 24 0 44
7 54 18 20 22 22 58 5 64 -19 7 -38 -2 -38 -17 0 -17 -27 -27 -32 -12 -2 7 -4
34 -3 61 0 52 22 76 32 37 3 -14 13 -21 29 -21 19 0 24 5 24 25 0 32 -33 65
-64 65 -13 0 -34 -8 -47 -19z"/>
<path d="M1759 826 c-1 -1 -1 -165 0 -193 1 -18 7 -23 26 -23 l25 0 0 108 0
108 -25 0 c-14 0 -25 0 -26 0z"/>
<path d="M1860 810 c-27 -27 -26 -60 1 -60 12 0 27 7 34 17 7 9 17 13 23 9 14
-8 4 -37 -12 -35 -40 5 -66 -21 -66 -65 0 -40 26 -66 66 -66 55 0 67 18 68
103 1 57 -3 79 -16 94 -24 26 -73 28 -98 3z m63 -116 c3 -4 2 -16 -4 -26 -13
-24 -35 -9 -26 16 7 17 19 21 30 10z"/>
<path d="M2119 821 c-4 -21 -5 -188 -1 -198 2 -7 14 -13 26 -13 21 0 22 4 23
109 0 108 0 109 -23 109 -13 0 -24 -3 -25 -7z"/>
<path d="M2220 812 c-18 -15 -23 -30 -24 -82 -4 -92 12 -120 70 -120 50 0 65
26 65 112 0 63 -3 75 -22 91 -27 22 -61 22 -89 -1z m60 -90 c0 -32 -3 -61 -6
-65 -15 -14 -29 6 -27 41 1 20 2 47 2 60 1 13 7 22 16 22 12 0 15 -13 15 -58z"/>
<path d="M2400 823 c-32 -11 -40 -37 -40 -125 0 -87 0 -88 25 -88 24 0 24 2
27 83 2 65 6 82 18 82 12 0 15 -16 16 -75 2 -96 0 -90 28 -90 23 0 24 1 22 96
-1 82 -4 98 -20 110 -20 14 -49 17 -76 7z"/>
</g>
</svg>
